<svg xmlns="http://www.w3.org/2000/svg" width="792" height="794" style="shape-rendering:geometricPrecision;text-rendering:geometricPrecision;image-rendering:optimizeQuality;fill-rule:evenodd;clip-rule:evenodd"><path fill="#fefffe" d="M-.5-.5h145v150H-.5V-.5Z" style="opacity:.986"/><path fill="#fefffe" d="M272.5-.5h161c127.443 15.434 226.276 76.434 296.5 183 59.195 98.026 74.862 202.692 47 314C739.124 625.044 657.957 714.211 533.5 764c-101.66 35.591-201.994 32.258-301-10C123.363 701.919 50.863 618.086 15 502.5 5.48 467.987.314 432.987-.5 397.5v-122h145c-.167 47.001 0 94.001.5 141 6.999 89.879 48.166 159.045 123.5 207.5 77.026 43.452 156.359 48.119 238 14 84.678-41.456 134.178-108.956 148.5-202.5 8.291-93.185-22.876-170.018-93.5-230.5-42.164-33.175-90.164-51.841-144-56-48.332-.5-96.666-.667-145-.5V-.5Z" style="opacity:.992"/><path fill="#fefffe" d="M272.5 275.5c45.335-.167 90.668 0 136 .5 57.573 5.914 96.073 36.081 115.5 90.5 13.949 53.474.782 98.974-39.5 136.5-41.125 31.908-86.125 38.574-135 20-40.79-19.381-65.956-51.214-75.5-95.5a3977.73 3977.73 0 0 1-1.5-152Z" style="opacity:.992"/></svg>